<svg width="16" height="17" viewBox="0 0 16 17" fill="none" xmlns="http://www.w3.org/2000/svg">
<path d="M8 9.5C9.38071 9.5 10.5 8.38071 10.5 7C10.5 5.61929 9.38071 4.5 8 4.5H7.16667C6.24619 4.5 5.5 5.24619 5.5 6.16667C5.5 6.35076 5.35076 6.5 5.16667 6.5H2.91667C2.68655 6.5 2.5 6.31345 2.5 6.08333C2.5 3.55203 4.55203 1.5 7.08333 1.5H8C11.0376 1.5 13.5 3.96243 13.5 7C13.5 10.0376 11.0376 12.5 8 12.5H7.5V15.5L1.5 11L7.5 6.5V9.5H8Z" fill="var(--mw-icon-background-default-selection, #050505)" stroke="var(--mw-icon-border-default-blue, #050505)"/>
<use href="#revert" />
</svg>